# xmcd
#
# Track frame offsets: 
#        150
#        16825
#        37708
#        60925
#        79468
#        101365
#        123470
#        143175
#        159593
#        178025
#        197713
#        216683
#
# Disc length: 3046 seconds
#
# Revision: 2
# Processed by: cddbd v1.5.2PL0 Copyright (c) Steve Scherf et al.
# Submitted via: ExactAudioCopyFreeDBPlugin 1.0
#
DISCID=a00be40c
DTITLE=Seiji Yokoyama - Vol.Ⅲ ヴォーカルベストセレクション
DYEAR=1991
DGENRE=Anime
TTITLE0=ペガサス幻想 Pegasus Fantasy Pegasus Fantasy (Format TV)
TTITLE1=さよならのかわりに Can't Say Good-Bye Au lieu d'un au revoir... - Can't
TTITLE1=say goodbye
TTITLE2=ビューティフル•チャイルド Beautiful Child Beautiful child
TTITLE3=永遠ブルー Blue Forever Forever blue
TTITLE4=ドラゴンブラッド Dragon Blood Dragon blood
TTITLE5=女神の子守歌 Lullaby La berceuse d'Athena - Lullaby
TTITLE6=いかなる星の下に We're Fearless Warriors Sous n'importe quelle etoile 
TTITLE6=We're fearless Warriors
TTITLE7=聖闘士神話 Soldier Dream Soldier dream
TTITLE8=神話の誓い We Are Saint Sermet mythologique - We are saint
TTITLE9=君にあげるために Boys Be Tu te sacrifie pour quelqu'un - Boys be
TTITLE10=夢旅人 Blue Dream Voyageur des reves - Blue dream
TTITLE11=You Are My Reason to be～愛は瞳の中に～（映画バージョン） You are my reason to
TTITLE11=be
EXTD=YEAR: 2003
EXTT0=
EXTT1=
EXTT2=
EXTT3=
EXTT4=
EXTT5=
EXTT6=
EXTT7=
EXTT8=
EXTT9=
EXTT10=
EXTT11=
PLAYORDER=
